<?xml version="1.0" encoding="UTF-8"?>
<!DOCTYPE svg PUBLIC "-//W3C//DTD SVG 1.1//EN" "http://www.w3.org/Graphics/SVG/1.1/DTD/svg11.dtd">
<!-- Creator: CorelDRAW -->
<svg xmlns="http://www.w3.org/2000/svg" xml:space="preserve" width="16px" height="16px" style="shape-rendering:geometricPrecision; text-rendering:geometricPrecision; image-rendering:optimizeQuality; fill-rule:evenodd; clip-rule:evenodd"
viewBox="0 0 3.46371 3.46371"
 xmlns:xlink="http://www.w3.org/1999/xlink">
 <defs>
  <style type="text/css">
   <![CDATA[
    .str1 {stroke:#373435;stroke-width:0.0902554}
    .str0 {stroke:#373435;stroke-width:0.0902554;stroke-linecap:round}
    .fil0 {fill:none}
    .fil1 {fill:#FFD500}
    .fil2 {fill:#FEFEFE;fill-rule:nonzero}
   ]]>
  </style>
 </defs>
 <g id="Layer_x0020_1">
  <metadata id="CorelCorpID_0Corel-Layer"/>
  <rect class="fil0" x="0.000111978" y="0.000104727" width="3.46371" height="3.46371"/>
  <path class="fil1" d="M1.82761 0.243408l0.572725 0.330595 0.572725 0.330595c0.0611077,0.035284 0.0958803,0.0958803 0.0958803,0.166193l0 0.661447 0 0.661447c0,0.0703123 -0.0347726,0.130909 -0.0958803,0.166193l-0.572725 0.330595 -0.572725 0.330595c-0.0608521,0.035284 -0.130909,0.035284 -0.191761,0l-0.572725 -0.330595 -0.572725 -0.330595c-0.0611077,-0.035284 -0.0958803,-0.0958803 -0.0958803,-0.166193l0 -0.661447 0 -0.661447c0,-0.0703123 0.0347726,-0.130909 0.0958803,-0.166193l0.572725 -0.330595 0.572725 -0.330595c0.0608521,-0.035284 0.130909,-0.035284 0.191761,0z"/>
  <path class="fil0 str0" d="M2.00837 2.34536c-0.113522,0.0503691 -0.236249,0.0764486 -0.360254,0.0764486 -0.240084,0 -0.470197,-0.0974144 -0.636901,-0.270255"/>
  <path class="fil2 str1" d="M2.20525 1.98894c0.141647,-0.17463 0.188181,-0.398095 0.144971,-0.601873 -0.0825849,-0.387612 -0.463805,-0.635367 -0.851673,-0.553038 -0.387612,0.0825849 -0.635367,0.463805 -0.553038,0.851673 0.0825849,0.387612 0.463805,0.635367 0.851673,0.553038 0.0708236,-0.0150852 0.130653,-0.0373294 0.192528,-0.0710793 0.108664,0.0288919 0.217584,0.0577839 0.326505,0.0866758 -0.110966,-0.265397 -0.0738918,-0.176931 -0.110966,-0.265397z"/>
  <line class="fil0 str0" x1="1.46889" y1="2.6463" x2="2.06104" y2= "2.6463" />
  <path class="fil0 str0" d="M2.25204 0.888747c0.179744,0.167471 0.281505,0.40193 0.281505,0.64764 0,0.171051 -0.0496021,0.338777 -0.14267,0.482214"/>
  <path class="fil0 str1" d="M2.33641 0.979002c0.127585,0.157755 0.19713,0.354374 0.19713,0.557384 0,0.192272 -0.0623861,0.37943 -0.17821,0.532839"/>
  <line class="fil0 str1" x1="1.76497" y1="2.6463" x2="1.76497" y2= "2.41695" />
  <path class="fil1" d="M1.39218 1.39474c0.0122727,-0.00869315 0.024034,-0.0181533 0.0393749,-0.0265908 0.047301,-0.0265908 0.107642,-0.0347726 0.161335,-0.0224999 0.0363067,0.00818179 0.0651986,0.023267 0.0894883,0.041676 0.0838633,0.0631532 0.116335,0.18409 0.0700566,0.279971 -0.0143181,0.029659 -0.0355396,0.059318 -0.0547157,0.0749145 -0.0122727,0.00997156 -0.0230113,0.0186647 -0.0378408,0.0273579 -0.0224999,0.0135511 -0.035284,0.0158522 -0.0434658,0.0207102l0.0534373 0.0345169c0.0273579,0.0253124 0.0355396,0.0053693 0.0557384,-0.00818179 0.0672441,-0.0460226 0.131931,-0.0508805 0.214005,-0.0498578 0.0340056,0.000255681 0.0534373,0.00715907 0.0534373,-0.0324715l0 -0.437726c0,-0.0375851 0.00511362,-0.047301 -0.0319601,-0.0547157 -0.0846304,-0.0168749 -0.175141,0.00102272 -0.243664,0.0506248 -0.00613634,0.00460226 -0.0199431,0.0168749 -0.0250567,0.0191761l-0.00997156 -0.00792611c-0.0623861,-0.0552271 -0.161335,-0.0767043 -0.246221,-0.0639202 -0.0194317,0.00281249 -0.0398862,0.00485794 -0.0434658,0.0227556 -0.00178977,0.00894883 -0.000511362,0.114289 -0.000511362,0.132187z"/>
  <path class="fil1" d="M1.52948 1.46812c0.0608521,-0.00818179 0.109176,0.0370737 0.115823,0.0894883 0.00792611,0.0616191 -0.0365624,0.109431 -0.0894883,0.11659 -0.0621305,0.00843747 -0.109687,-0.0373294 -0.116846,-0.0899997 -0.00843747,-0.0618748 0.0378408,-0.109176 0.090511,-0.116079zm-0.0682668 0.256704c0.0199431,0.00818179 0.0345169,0.0150852 0.059318,0.0181533 0.05446,0.00690338 0.105852,-0.012017 0.143693,-0.0485794 0.0718463,-0.0698009 0.0631532,-0.183323 0.000511362,-0.245965 -0.0899997,-0.0902554 -0.252357,-0.0557384 -0.289175,0.0756815 -0.0143181,0.0511362 -0.00460226,0.0846304 0.012784,0.12784l-0.0214772 0.0253124c-0.0207102,0.0265908 -0.0401419,0.0475566 -0.0595737,0.0779827 -0.0191761,0.0301703 0.0199431,0.0708236 0.0513919,0.0498578 0.0168749,-0.01125 0.0562498,-0.0406533 0.0698009,-0.0529259l0.0327272 -0.0273579z"/>
  <path class="fil0 str1" d="M2.09096 2.30317c-0.0263351,0.0153409 -0.0531816,0.0288919 -0.0805395,0.0411646 -0.00332385,0.00153409 -0.0066477,0.00306817 -0.00997156,0.00460226l-0.000511362 0 0.000511362 0m-0.000511362 0c-0.00434658,0.00204545 -0.00869315,0.00383521 -0.0130397,0.00562498l0 0c-0.0178977,0.00741475 -0.036051,0.0140625 -0.0542044,0.0204545l0 0c-0.0138068,0.00460226 -0.0276135,0.00894883 -0.0414203,0.012784l0 0c-0.00460226,0.0012784 -0.00920451,0.00255681 -0.0138068,0.00383521l-0.000255681 0c-0.00690338,0.00204545 -0.0138068,0.00383521 -0.0207102,0.0053693l-0.000255681 0c-0.00690338,0.00178977 -0.0138068,0.00332385 -0.0207102,0.00485794l-0.000511362 0 -0.00613634 0.00153409 -0.000767043 0 -0.00153409 0.000255681 -0.00562498 0.0012784 0 0 -0.00562498 0.00102272 -0.0012784 0.000255681 -0.000511362 0 -0.00588066 0.0012784 -0.00204545 0.000255681 -0.00485794 0.00102272 -0.0012784 0 -0.00690338 0.0012784 0 0c-0.00485794,0.000767043 -0.00946019,0.00153409 -0.0143181,0.00230113l0 0 -0.00639202 0.000767043 -0.000767043 0.000255681 -0.00153409 0.000255681 -0.00562498 0.000767043 0 0 -0.00588066 0.000767043 -0.000255681 0 -0.00306817 0.000255681 -0.00460226 0.000511362 -0.00102272 0.000255681 -0.00562498 0.000511362 -0.00102272 0.000255681 -0.00153409 0 -0.00562498 0.000767043 -0.000255681 0 -0.00562498 0.000511362 -0.00357953 0.000255681 -0.00383521 0.000255681 -0.0012784 0.000255681 -0.00306817 0.000255681 -0.00409089 0.000255681 -0.00153409 0 -0.00588066 0.000511362 0 0 -0.00588066 0.000255681 -0.0012784 0.000255681 -0.00434658 0.000255681 -0.0012784 0 -0.00306817 0 -0.00153409 0.000255681 -0.00434658 0 -0.00613634 0.000255681 -0.00102272 0 0 0 -0.00102272 0.000255681 -0.00613634 0 -0.000511362 0 -0.0053693 0.000255681 -0.00332385 0 -0.00102272 0 -0.00434658 0 -0.00153409 0 -0.00588066 0c-0.240084,0 -0.470197,-0.0974144 -0.636901,-0.270255 0.166704,0.17284 0.396817,0.270255 0.636901,0.270255l0.00588066 0 0.00153409 0 0.00434658 0 0.00102272 0 0.00332385 0 0.0053693 -0.000255681 0.000511362 0 0.00613634 0 0.00102272 -0.000255681 0 0 0.00102272 0 0.00613634 -0.000255681 0.00434658 0 0.00153409 -0.000255681 0.00306817 0 0.0012784 0 0.00434658 -0.000255681 0.0012784 -0.000255681 0.00588066 -0.000255681 0 0 0.00588066 -0.000511362 0.00153409 0 0.00409089 -0.000255681 0.00306817 -0.000255681 0.0012784 -0.000255681 0.00383521 -0.000255681 0.00357953 -0.000255681 0.00562498 -0.000511362 0.000255681 0 0.00562498 -0.000767043 0.00153409 0 0.00102272 -0.000255681 0.00562498 -0.000511362 0.00102272 -0.000255681 0.00460226 -0.000511362 0.00306817 -0.000255681 0.000255681 0 0.00588066 -0.000767043 0 0 0.00562498 -0.000767043 0.00153409 -0.000255681 0.000767043 -0.000255681 0.00639202 -0.000767043 0 0"/>
 </g>
</svg>
